<svg version="1.1" xmlns="http://www.w3.org/2000/svg" xmlns:xlink="http://www.w3.org/1999/xlink" width="228.62327" height="360.37021" viewBox="0,0,228.62327,360.37021"><g transform="translate(-125.79167,0.3101)"><g data-paper-data="{&quot;isPaintingLayer&quot;:true}" fill-rule="nonzero" stroke-linejoin="miter" stroke-miterlimit="10" stroke-dasharray="" stroke-dashoffset="0" style="mix-blend-mode: normal"><path d="M135.97798,236.59957v-221.112l45.22746,25.40555v195.70646z" fill="#1f1f1f" stroke="none" stroke-width="NaN" stroke-linecap="butt"/><path d="M185.40232,34.87562l-59.46571,-34.61854h171.97602l54.99882,34.61856z" fill="#383838" stroke="none" stroke-width="0" stroke-linecap="butt"/><path d="M180.55715,294.08477l-46.87412,-46.3891h52.51402v46.59091z" fill="#3a3a3a" stroke="#000000" stroke-width="0" stroke-linecap="butt"/><path d="M192.38219,353.37824v-313.72597h153.46768v313.726z" fill="#000000" stroke="#000000" stroke-width="0.5" stroke-linecap="butt"/><g stroke="none" stroke-width="0" stroke-linecap="butt"><path d="M186.18621,360.06008v-324.90513h167.87718v324.90515z" fill-opacity="0.54032" fill="#000000"/><g><path d="M232.64395,119.18468c-11.44226,-20.70009 -3.93728,-46.75663 16.76281,-58.19888c20.70009,-11.44226 46.75661,-3.93732 58.19886,16.76276c11.44226,20.70009 3.9373,46.75663 -16.76276,58.19888c-20.70009,11.44226 -46.75663,3.9373 -58.19888,-16.76279z" fill-opacity="0.43548" fill="#ff0000"/><path d="M256.04278,106.25064c-4.29899,-7.77726 -1.47928,-17.567 6.29797,-21.86599c7.77726,-4.29899 17.567,-1.47928 21.86599,6.29797c4.29899,7.77726 1.47928,17.567 -6.29797,21.86599c-7.77726,4.29899 -17.567,1.47928 -21.86599,-6.29797z" fill="#ff0000"/><path d="M266.21779,100.62626c-1.19274,-2.15777 -0.41042,-4.87386 1.74733,-6.0666c2.15775,-1.19271 4.87386,-0.41042 6.06657,1.74735c1.19271,2.15775 0.41044,4.87384 -1.74733,6.06657c-2.15775,1.19271 -4.87386,0.41044 -6.06657,-1.74733z" fill="#000000"/><path d="M276.35119,98.98487l0.52367,-8.77511c0,0 10.91657,-7.1657 15.98681,-9.96835c5.25074,-2.90241 7.04622,-11.81483 7.04622,-11.81483c0,0 4.53026,4.10199 5.80507,6.40823c1.19505,2.16198 3.97493,7.70272 3.97493,7.70272c0,0 -13.46534,9.70599 -18.97428,12.75113c-4.68387,2.58908 -14.36243,3.69622 -14.36243,3.69622z" fill-opacity="0.44355" fill="#ff0000"/><path d="M270.76727,92.20922l-8.77511,-0.52369c0,0 -7.1657,-10.91657 -9.96835,-15.98681c-2.90241,-5.25072 -11.81483,-7.04622 -11.81483,-7.04622c0,0 4.10194,-4.53024 6.40823,-5.80507c2.16196,-1.19507 7.70272,-3.97493 7.70272,-3.97493c0,0 9.70599,13.46531 12.75113,18.97426c2.58908,4.68387 3.69622,14.36246 3.69622,14.36246z" fill-opacity="0.44355" fill="#ff0000"/><path d="M264.44962,99.13336l-0.52369,8.77511c0,0 -10.91657,7.16572 -15.98681,9.96837c-5.25072,2.90241 -7.04625,11.81483 -7.04625,11.81483c0,0 -4.53024,-4.10197 -5.80507,-6.40823c-1.19505,-2.16198 -3.97493,-7.70272 -3.97493,-7.70272c0,0 13.46534,-9.70599 18.97428,-12.75113c4.68387,-2.58908 14.36246,-3.69622 14.36246,-3.69622z" fill-opacity="0.44355" fill="#ff0000"/><path d="M270.07627,104.2636l8.77511,0.52369c0,0 7.16572,10.9166 9.96835,15.98683c2.90241,5.25072 11.81483,7.04622 11.81483,7.04622c0,0 -4.10197,4.53026 -6.40823,5.80509c-2.16198,1.19505 -7.70272,3.97493 -7.70272,3.97493c0,0 -9.70599,-13.46534 -12.75113,-18.97428c-2.58908,-4.68387 -3.69622,-14.36246 -3.69622,-14.36246z" fill-opacity="0.44355" fill="#ff0000"/></g><g><path d="M227.29894,197.60751c0,-23.65204 19.17378,-42.82579 42.82582,-42.82579c23.65204,0 42.82582,19.17378 42.82582,42.82579c0,23.65204 -19.17378,42.82579 -42.82582,42.82579c-23.65204,0 -42.82582,-19.17376 -42.82582,-42.82579z" fill-opacity="0.43989" fill="#b1ff00"/><path d="M275.32341,201.07323l4.70349,-7.42656c0,0 13.0207,-0.99022 18.81397,-0.99022c5.99952,0 11.88252,-6.93146 11.88252,-6.93146c0,0 1.98041,5.78164 1.98041,8.41678c0,2.4703 -0.24755,8.66433 -0.24755,8.66433c0,0 -16.48026,1.98041 -22.77482,1.98041c-5.35182,0 -14.35804,-3.71329 -14.35804,-3.71329z" fill-opacity="0.43989" fill="#b1ff00"/><path d="M273.71431,192.4419l-7.42658,-4.70351c0,0 -0.9902,-13.0207 -0.9902,-18.81397c0,-5.99952 -6.93146,-11.88252 -6.93146,-11.88252c0,0 5.78162,-1.98041 8.41678,-1.98041c2.4703,0 8.66435,0.24755 8.66435,0.24755c0,0 1.98041,16.48026 1.98041,22.77482c0,5.35182 -3.71329,14.35804 -3.71329,14.35804z" fill-opacity="0.43989" fill="#b1ff00"/><path d="M264.83543,195.4455l-4.70351,7.42658c0,0 -13.0207,0.9902 -18.81397,0.9902c-5.99952,0 -11.88252,6.93146 -11.88252,6.93146c0,0 -1.98041,-5.78162 -1.98041,-8.41678c0,-2.4703 0.24755,-8.66435 0.24755,-8.66435c0,0 16.48026,-1.98041 22.77482,-1.98041c5.35182,0 14.35804,3.71329 14.35804,3.71329z" fill-opacity="0.43989" fill="#b1ff00"/><path d="M267.27793,202.65751l7.42658,4.70351c0,0 0.9902,13.0207 0.9902,18.81397c0,5.99952 6.93146,11.88252 6.93146,11.88252c0,0 -5.78162,1.98041 -8.41678,1.98041c-2.4703,0 -8.66435,-0.24755 -8.66435,-0.24755c0,0 -1.98041,-16.48026 -1.98041,-22.77482c0,-5.35182 3.71329,-14.35804 3.71329,-14.35804z" fill-opacity="0.43989" fill="#b1ff00"/><path d="M254.03462,197.60751c0,-8.88635 7.20381,-16.09016 16.09014,-16.09016c8.88635,0 16.09016,7.20381 16.09016,16.09016c0,8.88635 -7.20381,16.09016 -16.09016,16.09016c-8.88633,0 -16.09014,-7.20381 -16.09014,-16.09016z" fill="#b1ff00"/><path d="M265.66068,197.60751c0,-2.46545 1.99865,-4.46412 4.46412,-4.46412c2.46547,0 4.46412,1.99865 4.46412,4.46412c0,2.46547 -1.99865,4.46412 -4.46412,4.46412c-2.46545,0 -4.46412,-1.99865 -4.46412,-4.46412z" fill="#000000"/></g><g><path d="M301.65933,270.2321c16.00313,17.41605 14.85772,44.50766 -2.55833,60.51078c-17.41605,16.00313 -44.50766,14.85772 -60.51078,-2.55833c-16.00313,-17.41605 -14.85772,-44.50766 2.55833,-60.51078c17.41605,-16.00313 44.50766,-14.85772 60.51078,2.55833z" fill-opacity="0.43989" fill="#00c3ff"/><path d="M263.9519,300.17377l1.56146,8.65093c0,0 -8.91773,9.53903 -13.18359,13.4588c-4.41771,4.05931 -4.05975,13.14374 -4.05975,13.14374c0,0 -5.37015,-2.91732 -7.15312,-4.85769c-1.67142,-1.81897 -5.68006,-6.54744 -5.68006,-6.54744c0,0 10.79519,-12.60892 15.43016,-16.86787c3.94078,-3.62108 13.0849,-6.98048 13.0849,-6.98048z" fill-opacity="0.43989" fill="#00c3ff"/><path d="M270.97673,305.44068l8.65093,-1.56146c0,0 9.53903,8.91773 13.4588,13.18359c4.05931,4.41771 13.14374,4.05975 13.14374,4.05975c0,0 -2.91732,5.37015 -4.85769,7.15312c-1.81897,1.67142 -6.54744,5.68006 -6.54744,5.68006c0,0 -12.60892,-10.79519 -16.86787,-15.43016c-3.62108,-3.94078 -6.98048,-13.0849 -6.98048,-13.0849z" fill-opacity="0.43989" fill="#00c3ff"/><path d="M275.48241,297.22147l-1.56146,-8.65093c0,0 8.91773,-9.53903 13.18359,-13.4588c4.41771,-4.05931 4.05975,-13.14374 4.05975,-13.14374c0,0 5.37015,2.91732 7.15312,4.85769c1.67142,1.81897 5.68006,6.54744 5.68006,6.54744c0,0 -10.79519,12.60892 -15.43016,16.86787c-3.94078,3.62108 -13.0849,6.98048 -13.0849,6.98048z" fill-opacity="0.43989" fill="#00c3ff"/><path d="M268.80417,293.56359l-8.65093,1.56146c0,0 -9.53903,-8.91773 -13.4588,-13.18359c-4.05931,-4.41771 -13.14374,-4.05975 -13.14374,-4.05975c0,0 2.91732,-5.37015 4.85769,-7.15312c1.81897,-1.67142 6.54744,-5.68006 6.54744,-5.68006c0,0 12.60892,10.79519 16.86787,15.43016c3.62108,3.94078 6.98048,13.0849 6.98048,13.0849z" fill-opacity="0.43989" fill="#00c3ff"/><path d="M281.97267,288.32164c6.01256,6.5434 5.58221,16.72204 -0.96119,22.7346c-6.5434,6.01256 -16.72204,5.58221 -22.7346,-0.96119c-6.01256,-6.5434 -5.58221,-16.72204 0.96119,-22.7346c6.5434,-6.01256 16.72204,-5.58221 22.7346,0.96119z" fill="#00c3ff"/><path d="M273.4119,296.18787c1.66814,1.81543 1.54875,4.63943 -0.26669,6.30756c-1.81543,1.66814 -4.63943,1.54875 -6.30756,-0.26669c-1.66814,-1.81543 -1.54875,-4.63943 0.26669,-6.30756c1.81543,-1.66814 4.63943,-1.54875 6.30756,0.26666z" fill="#000000"/></g></g><path d="M126.15295,299.6636v-298.78664l59.75733,34.40574l0.4527,324.13824l-60.1105,-59.75733" fill="none" stroke="#000000" stroke-width="0.5" stroke-linecap="round"/><path d="M126.70647,300.91503v-300.35169l59.95613,34.26065v324.33413z" fill-opacity="0.54032" fill="#000000" stroke="#000000" stroke-width="0" stroke-linecap="butt"/><path d="M126.04167,-0.0601h171.55382l55.94683,35.15244l-167.95075,-0.58199" fill="none" stroke="#000000" stroke-width="0.5" stroke-linecap="round"/><g stroke-linecap="butt"><path d="M185.59725,168.07745l-46.87412,-46.3891h52.51402v46.59091z" fill="#3a3a3a" stroke="#000000" stroke-width="0"/><path d="M139.47578,166.70818v-43.91258l47.08152,42.55445v45.2707z" fill="#000000" stroke="#000000" stroke-width="0.5"/><path d="M186.92291,211.53483v-46.59091h4.4401v46.59091z" fill="#242424" stroke="none" stroke-width="0"/></g><path d="M353.09318,34.96304v324.59094h-166.59621" fill="none" stroke="#000000" stroke-width="0.5" stroke-linecap="round"/><path d="M134.43566,292.71551v-43.91258l47.08152,42.55445v45.2707z" fill="#000000" stroke="#000000" stroke-width="0.5" stroke-linecap="butt"/><path d="M181.88281,337.54216v-46.59091h4.4401v46.59091z" fill="#242424" stroke="none" stroke-width="0" stroke-linecap="butt"/><g><path d="M241.15916,30.96991l-3.0643,-6.34038h9.40364l3.43203,6.34038z" fill="#000000" stroke="none" stroke-width="0" stroke-linecap="butt"/><g fill="none" stroke="#ffffff" stroke-width="0.5"><path d="M242.15738,28.47519c-0.32647,-0.92655 0.56645,-1.84939 1.99441,-2.06123c1.42794,-0.21184 2.85017,0.36757 3.17662,1.29412c0.32647,0.92655 -0.56645,1.84939 -1.99439,2.06123c-1.42794,0.21184 -2.85017,-0.36757 -3.17664,-1.29412z" stroke-linecap="butt"/><path d="M243.75055,25.45365l0.68296,1.93834" stroke-linecap="round"/></g></g><g stroke="none" stroke-width="0" stroke-linecap="butt"><path d="M255.18258,30.96991l-2.23853,-6.34038h2.55639l2.02533,6.34038z" fill="#000000"/><path d="M255.43537,29.99865l-1.70555,-4.39789h1.02543l1.59894,4.39789z" fill="#efff00"/></g><g stroke="none" stroke-width="0" stroke-linecap="butt"><path d="M261.65954,29.51722c0,-0.87776 -1.11927,-3.02475 -1.11927,-3.48349c0,-0.16882 0.12273,-0.32695 0.29053,-0.32695c0.27396,0 0.89729,0 1.07369,0c0.17137,0 0.23601,0.17751 0.23601,0.36213c0,0.46708 1.06596,2.52484 1.06596,3.41311c0,0.25257 -0.14732,0.41059 -0.34155,0.41059c-0.28716,0 -0.6768,0 -0.84448,0c-0.15507,0 -0.36091,-0.14334 -0.36091,-0.37539z" fill="#000000"/><path d="M262.00233,29.25143l-1.11925,-2.90342h0.48395l1.06596,2.90342z" fill="#efff00"/></g><path d="M266.96221,27.70399c0,-0.8723 0.96429,-1.57945 2.15379,-1.57945c1.1895,0 2.15377,0.70715 2.15377,1.57945c0,0.8723 -0.96427,1.57945 -2.15377,1.57945c-1.1895,0 -2.15379,-0.70715 -2.15379,-1.57945z" fill="#000000" stroke="#8a8a8a" stroke-width="0.5" stroke-linecap="butt"/><path d="M274.25882,26.26813c0,-0.42543 0.47042,-0.95725 0.86152,-0.95725c0.53329,0 1.987,0 2.96744,0c0.55424,0 2.01021,2.88069 2.01021,3.82897c0,0.55308 -0.5318,0.95725 -0.95725,0.95725c-0.55581,0 -2.01926,0 -2.96744,0c-0.50337,0 -1.91448,-3.36031 -1.91448,-3.82897z" fill="#000000" stroke="#8a8a8a" stroke-width="0" stroke-linecap="butt"/></g></g></svg>