<svg version="1.1" xmlns="http://www.w3.org/2000/svg" xmlns:xlink="http://www.w3.org/1999/xlink" width="84.25991" height="359.67475" viewBox="0,0,84.25991,359.67475"><g transform="translate(-197.87004,0.1111)"><g data-paper-data="{&quot;isPaintingLayer&quot;:true}" fill-rule="nonzero" stroke-linecap="butt" stroke-linejoin="miter" stroke-miterlimit="10" stroke-dasharray="" stroke-dashoffset="0" style="mix-blend-mode: normal"><path d="M199.09632,359.56365v-359.67475h81.25991v359.67475z" fill="#ffffff" stroke="none" stroke-width="none"/><path d="M199.37005,246.16321c0,-30.23442 0,-120.01918 0,-134.81025c0,-4.0451 3.5615,-7.44366 7.23689,-7.44366c8.95086,0 47.19154,0 64.92522,0c5.55501,0 9.09779,3.18875 9.09779,7.03011c0,14.51648 0,105.28316 0,135.43056c0,6.10214 -4.14554,9.72072 -8.27073,9.72072c-9.36766,0 -47.06369,0 -64.30491,0c-5.31352,0 -8.68427,-3.7009 -8.68427,-9.92748z" fill="#000000" stroke="#a0a0a0" stroke-width="3"/><path d="M205.11124,236.81406c0,-25.96216 0,-103.05996 0,-115.76098c0,-3.47351 3.05824,-6.39184 6.21428,-6.39184c7.68607,0 40.52317,0 55.751,0c4.77007,0 7.81223,2.73817 7.81223,6.03673c0,12.46524 0,90.40619 0,116.29363c0,5.23988 -3.55975,8.34712 -7.10203,8.34712c-8.04397,0 -40.41338,0 -55.21834,0c-4.5627,0 -7.45714,-3.17795 -7.45714,-8.52468z" fill="#ffffff" stroke="#000000" stroke-width="0"/><path d="M236.58832,109.76023c0,-1.88422 1.52746,-3.41168 3.41168,-3.41168c1.88422,0 3.41168,1.52746 3.41168,3.41168c0,1.88422 -1.52746,3.41168 -3.41168,3.41168c-1.88422,0 -3.41168,-1.52746 -3.41168,-3.41168z" fill="#a0a0a0" stroke="none" stroke-width="0"/></g></g></svg>