<svg version="1.1" xmlns="http://www.w3.org/2000/svg" xmlns:xlink="http://www.w3.org/1999/xlink" width="210.3698" height="359.67475" viewBox="0,0,210.3698,359.67475"><g transform="translate(-134.8151,0.1111)"><g data-paper-data="{&quot;isPaintingLayer&quot;:true}" fill-rule="nonzero" stroke-linecap="butt" stroke-linejoin="miter" stroke-miterlimit="10" stroke-dasharray="" stroke-dashoffset="0" style="mix-blend-mode: normal"><path d="M136.04137,359.56365v-359.67475h207.3698v359.67475z" fill="#ffffff" stroke="none" stroke-width="NaN"/><path d="M330.15724,242.98018c-41.1989,0 -163.54402,0 -183.69905,0c-5.51205,0 -10.14309,-5.52064 -10.14309,-11.21783c0,-13.87465 0,-73.15123 0,-100.64008c0,-8.61078 4.34514,-14.10241 9.57957,-14.10241c19.78086,0 143.46399,0 184.54431,0c8.31507,0 13.24592,6.42597 13.24592,12.8204c0,14.52073 0,72.95306 0,99.67854c0,8.23645 -5.04303,13.46141 -13.52767,13.46141z" fill="#000000" stroke="#a0a0a0" stroke-width="3"/><path d="M320.04543,229.30865c-36.7246,0 -145.78275,0 -163.7489,0c-4.91342,0 -9.04153,-4.32223 -9.04153,-8.78269c0,-10.86281 0,-57.27182 0,-78.79347c0,-6.7416 3.87325,-11.04109 8.53921,-11.04109c17.63262,0 127.88347,0 164.50237,0c7.41203,0 11.80737,5.03104 11.80737,10.0374c0,11.36862 0,57.11666 0,78.04064c0,6.44851 -4.49533,10.53924 -12.05853,10.53924z" fill="#ffffff" stroke="#000000" stroke-width="0"/><path d="M239.67947,128.4179c-1.7347,0 -3.14096,-1.40624 -3.14096,-3.14094c0,-1.7347 1.40627,-3.14096 3.14096,-3.14096c1.7347,0 3.14096,1.40627 3.14096,3.14096c0,1.7347 -1.40627,3.14094 -3.14096,3.14094z" fill="#a0a0a0" stroke="none" stroke-width="0"/></g></g></svg>